<svg width="24" height="20" viewBox="0 0 24 20" fill="none" xmlns="http://www.w3.org/2000/svg">
<g clip-path="url(#clip0_1_590)">
<path d="M24 2.36729C23.1169 2.75587 22.1679 3.01849 21.1719 3.13664C22.1887 2.53195 22.9693 1.5744 23.3369 0.433496C22.3704 1.00263 21.3129 1.40363 20.2103 1.61915C19.312 0.669603 18.0324 0.0761719 16.6162 0.0761719C13.8968 0.0761719 11.6921 2.26384 11.6921 4.96205C11.6921 5.34505 11.7357 5.71791 11.8196 6.0756C7.72744 5.87178 4.09931 3.92664 1.67072 0.970551C1.24697 1.69218 1.00416 2.53158 1.00416 3.42689C1.00416 5.12206 1.8735 6.6175 3.19462 7.49374C2.4127 7.46944 1.64798 7.25987 0.964313 6.88254C0.964031 6.903 0.964031 6.92347 0.964031 6.94403C0.964031 9.31133 2.66128 11.2862 4.91372 11.735C4.18864 11.9307 3.42809 11.9593 2.69016 11.8187C3.31669 13.7599 5.13516 15.1724 7.28972 15.212C5.60456 16.5224 3.48141 17.3035 1.17459 17.3035C0.777094 17.3035 0.385219 17.2804 0 17.2353C2.17903 18.6216 4.76719 19.4305 7.54781 19.4305C16.6047 19.4305 21.5573 11.9853 21.5573 5.52869C21.5573 5.31677 21.5526 5.10606 21.543 4.89656C22.507 4.20506 23.339 3.34857 24 2.36729Z" fill="#FF0000"/>
</g>
<defs>
<clipPath id="clip0_1_590">
<rect width="24" height="19.443" fill="white"/>
</clipPath>
</defs>
</svg>
